<?xml version="1.0" encoding="UTF-8" standalone="no"?>
<!-- Created with Inkscape (http://www.inkscape.org/) -->

<svg
   width="256.0px"
   height="256.0px"
   viewBox="0 0 256.0 256.0"
   version="1.1"
   id="SVGRoot"
   sodipodi:docname="logo.svg"
   inkscape:version="1.1 (c68e22c387, 2021-05-23)"
   xmlns:inkscape="http://www.inkscape.org/namespaces/inkscape"
   xmlns:sodipodi="http://sodipodi.sourceforge.net/DTD/sodipodi-0.dtd"
   xmlns="http://www.w3.org/2000/svg"
   xmlns:svg="http://www.w3.org/2000/svg">
  <sodipodi:namedview
     id="namedview893"
     pagecolor="#ffffff"
     bordercolor="#666666"
     borderopacity="1.0"
     inkscape:pageshadow="2"
     inkscape:pageopacity="0.0"
     inkscape:pagecheckerboard="0"
     inkscape:document-units="px"
     showgrid="false"
     inkscape:zoom="0.5190608"
     inkscape:cx="120.40979"
     inkscape:cy="49.127193"
     inkscape:window-width="1920"
     inkscape:window-height="1009"
     inkscape:window-x="1912"
     inkscape:window-y="-8"
     inkscape:window-maximized="1"
     inkscape:current-layer="layer1">
    <inkscape:grid
       type="xygrid"
       id="grid956" />
  </sodipodi:namedview>
  <defs
     id="defs888" />
  <g
     inkscape:label="Layer 1"
     inkscape:groupmode="layer"
     id="layer1">
    <path
       style="fill:#55c4ff;fill-opacity:1;fill-rule:evenodd;stroke:none;stroke-width:1.16034px;stroke-linecap:butt;stroke-linejoin:miter;stroke-opacity:1"
       d="M 57.306552,179.32664 C 38.301028,122.87971 18.317357,4.0734439 18.317357,4.0734439 l 50.128965,60.4321391 22.27954,-54.388926 27.849428,60.43214 38.9892,-66.4753531 22.27953,60.4321391 16.70966,-42.302498 16.70965,48.345712 33.41931,-66.4753531 c 0,0 -23.87921,116.5614661 -55.69884,163.1667761 -19.32387,28.30309 -42.38502,56.65791 -61.3962,82.3601 -34.157492,-2.05271 -48.671538,-28.42376 -72.281048,-70.27368 z"
       id="path1099"
       sodipodi:nodetypes="ccccccccccscc" />
    <path
       style="fill:#ffffff;fill-rule:evenodd;stroke:none;stroke-width:1.42887px;stroke-linecap:butt;stroke-linejoin:miter;stroke-opacity:1"
       d="m 112.80323,125.44861 c -4.3912,19.26422 -38.313832,18.64494 -54.25279,8.91119 -8.214756,-5.01666 -16.606683,-20.18683 -10.888234,-28.31771 10.096977,-14.356579 34.077313,0.19326 49.524511,6.91853 6.001463,2.61284 17.169033,5.67706 15.616513,12.48799 z"
       id="path3818"
       sodipodi:nodetypes="sssss" />
    <path
       style="fill:#ffffff;fill-rule:evenodd;stroke:none;stroke-width:1.49862px;stroke-linecap:butt;stroke-linejoin:miter;stroke-opacity:1"
       d="m 123.91773,128.51683 c 2.90065,21.51213 40.29973,24.37078 58.46248,15.187 8.54501,-4.32069 17.69758,-18.81064 12.64636,-27.44702 -9.61571,-16.44057 -36.55006,-3.89612 -53.82396,1.38408 -6.41084,1.95963 -18.24902,3.72563 -17.28488,10.87594 z"
       id="path3966"
       sodipodi:nodetypes="sssss" />
    <path
       style="fill:#ffffff;fill-rule:evenodd;stroke:none;stroke-width:1.16034px;stroke-linecap:butt;stroke-linejoin:miter;stroke-opacity:1"
       d="m 105.6184,186.41832 c 0.55755,0.16128 18.02787,5.32304 25.75368,1.16427 5.83175,-3.13922 -9.10113,13.69504 -15.55951,12.80685 -5.43107,-0.7469 -15.48396,-15.50112 -10.19417,-13.97112 z"
       id="path4001"
       sodipodi:nodetypes="ssss" />
    <path
       style="fill:#ffffff;fill-rule:evenodd;stroke:none;stroke-width:0.55642px;stroke-linecap:butt;stroke-linejoin:miter;stroke-opacity:1"
       d="m 124.54333,163.23837 c -1.78524,4.02882 -11.03518,3.98686 -12.35829,-0.24662 -1.00252,-3.20766 4.22236,-6.6755 7.32764,-6.32783 2.61133,0.29238 6.16815,4.00743 5.03065,6.57445 z"
       id="path4400"
       sodipodi:nodetypes="ssss" />
  </g>
</svg>
